<svg width="3890" height="910" xmlns="http://www.w3.org/2000/svg" xmlns:xlink="http://www.w3.org/1999/xlink" xml:space="preserve" overflow="hidden"><defs><clipPath id="clip0"><rect x="194" y="1434" width="3890" height="910"/></clipPath></defs><g clip-path="url(#clip0)" transform="translate(-194 -1434)"><path d="M143.957-91.3779C150.914-94.4997 158.094-96.8856 165.497-98.5356 172.9-100.186 180.437-101.011 188.107-101.011 195.778-101.011 203.315-100.186 210.718-98.5356 218.121-96.8856 225.301-94.4997 232.258-91.3779ZM274.669-19.2656 255.403 38.3975 120.812 38.3975 101.546-19.2656 120.812-72.1123 255.403-72.1123Z" fill="#212121" transform="translate(3521.75 1892)"/><path d="M255.403 38.3975 255.403-71.3096C252.014-65.1553 247.933-59.6253 243.162-54.7197 238.39-49.8141 233.083-45.6444 227.241-42.2104 221.399-38.7765 215.177-36.1453 208.577-34.3169 201.977-32.4884 195.154-31.5742 188.107-31.5742 181.15-31.5742 174.372-32.4884 167.771-34.3169 161.171-36.1453 154.95-38.7765 149.108-42.2104 143.266-45.6444 137.936-49.7918 133.12-54.6528 128.304-59.5138 124.201-65.0215 120.812-71.1758L120.812 38.3975 82.2803 38.3975 82.2803 4.81641C82.2803-3.03255 83.1499-10.77 84.8892-18.396 86.6284-26.022 89.1481-33.3358 92.4482-40.3374 95.7484-47.339 99.7843-53.917 104.556-60.0713 109.328-66.2256 114.746-71.8447 120.812-76.9287L120.812-76.7949C130.266-84.6439 140.768-90.6421 152.319-94.7895 163.869-98.937 175.799-101.011 188.107-101.011 200.505-101.011 212.435-98.937 223.896-94.7895 235.357-90.6421 245.86-84.6439 255.403-76.7949L255.403-76.9287C261.468-71.9339 266.887-66.3371 271.659-60.1382 276.43-53.9393 280.466-47.339 283.767-40.3374 287.067-33.3358 289.586-26.022 291.326-18.396 293.065-10.77 293.935-3.03255 293.935 4.81641L293.935 38.3975ZM154.393 38.3975 154.393-12.1748C154.393-13.5127 153.924-14.6499 152.988-15.5864 152.051-16.5229 150.914-16.9912 149.576-16.9912 148.238-16.9912 147.123-16.5229 146.231-15.5864 145.34-14.6499 144.894-13.5127 144.894-12.1748L144.894 38.3975ZM192.924 38.3975 192.924-12.1748C192.924-13.5127 192.456-14.6499 191.519-15.5864 190.582-16.5229 189.445-16.9912 188.107-16.9912 186.77-16.9912 185.632-16.5229 184.696-15.5864 183.759-14.6499 183.291-13.5127 183.291-12.1748L183.291 38.3975ZM231.321 38.3975 231.321-12.1748C231.321-13.5127 230.853-14.6499 229.916-15.5864 228.98-16.5229 227.843-16.9912 226.505-16.9912 225.167-16.9912 224.052-16.5229 223.16-15.5864 222.268-14.6499 221.822-13.5127 221.822-12.1748L221.822 38.3975Z" transform="translate(3521.75 1892)"/><path d="M269.986-123.354C271.77-123.354 273.42-122.841 274.936-121.815 276.453-120.789 277.434-119.384 277.88-117.601 278.058-116.887 278.437-115.46 279.017-113.319 279.597-111.179 280.221-108.904 280.89-106.496 281.559-104.088 282.161-101.88 282.696-99.8735 283.231-97.8667 283.499-96.6849 283.499-96.3281 283.499-95.347 283.142-94.4774 282.429-93.7192 281.715-92.9611 280.868-92.582 279.887-92.582L259.952-92.582C258.971-92.582 258.124-92.9611 257.41-93.7192 256.697-94.4774 256.34-95.347 256.34-96.3281 256.34-96.6849 256.607-97.8667 257.143-99.8735 257.678-101.88 258.28-104.088 258.949-106.496 259.618-108.904 260.264-111.179 260.889-113.319 261.513-115.46 261.914-116.887 262.093-117.601 262.539-119.384 263.52-120.789 265.036-121.815 266.552-122.841 268.202-123.354 269.986-123.354Z" fill="#FCB100" transform="translate(3521.75 1892)"/><path d="M170.046-88.167 179.144-96.1943 197.74-96.1943 205.634-87.0967C204.831-84.956 203.939-83.0607 202.958-81.4106 201.977-79.7606 200.84-78.2443 199.546-76.8618 198.253-75.4793 196.871-74.1414 195.399-72.8481 193.927-71.5548 192.344-70.1501 190.649-68.6338 189.936-67.9202 189.044-67.5635 187.974-67.5635 186.992-67.5635 186.145-67.9202 185.432-68.6338 183.648-70.1501 181.998-71.5994 180.481-72.9819 178.965-74.3644 177.56-75.7915 176.267-77.2632 174.974-78.7349 173.792-80.3403 172.722-82.0796 171.651-83.8188 170.759-85.848 170.046-88.167Z" fill="#FCB100" transform="translate(3521.75 1892)"/><path d="M204.162-230.786C208.176-230.786 211.922-229.805 215.4-227.843 218.879-225.88 221.688-223.205 223.829-219.815 225.524-217.229 227.419-215.11 229.515-213.46 231.611-211.81 234.131-210.45 237.074-209.38 241.712-207.685 245.436-204.943 248.246-201.152 251.055-197.361 252.46-192.924 252.46-187.84 252.46-185.253 252.103-183.046 251.39-181.217 250.676-179.389 249.896-177.694 249.048-176.133 248.201-174.572 247.421-173.012 246.707-171.451 245.993-169.89 245.637-168.128 245.637-166.166L245.637-126.029C245.637-121.57 244.321-117.511 241.69-113.854 239.059-110.198 235.647-107.656 231.455-106.229L213.26-100.074 213.26-171.518C211.476-173.569 210.026-175.687 208.912-177.873 207.797-180.058 207.061-182.488 206.704-185.164 203.582-184.629 200.483-184.874 197.406-185.9 194.329-186.926 191.631-188.42 189.312-190.382 187.26-188.598 184.941-187.238 182.354-186.301 179.768-185.365 177.137-184.896 174.461-184.896 174.015-184.896 173.569-184.919 173.123-184.963 172.677-185.008 172.231-185.075 171.785-185.164 171.518-182.577 170.782-180.102 169.578-177.739 168.374-175.375 166.88-173.301 165.096-171.518L165.096-100.074 146.9-106.229C142.708-107.656 139.319-110.198 136.732-113.854 134.146-117.511 132.853-121.57 132.853-126.029L132.853-166.166C132.853-168.128 132.496-169.867 131.782-171.384 131.069-172.9 130.311-174.439 129.508-175.999 128.705-177.56 127.947-179.277 127.233-181.15 126.52-183.023 126.163-185.253 126.163-187.84 126.163-192.924 127.568-197.361 130.377-201.152 133.187-204.943 136.911-207.685 141.549-209.38 144.492-210.45 147.034-211.855 149.175-213.594 151.315-215.333 153.278-217.496 155.062-220.083 157.291-223.472 160.079-226.103 163.423-227.977 166.768-229.85 170.447-230.786 174.461-230.786 175.888-230.786 177.226-230.63 178.475-230.318 179.723-230.006 180.95-229.649 182.154-229.248 183.358-228.846 184.54-228.489 185.699-228.177 186.859-227.865 188.063-227.709 189.312-227.709 190.56-227.709 191.764-227.865 192.924-228.177 194.083-228.489 195.265-228.846 196.469-229.248 197.673-229.649 198.9-230.006 200.148-230.318 201.397-230.63 202.735-230.786 204.162-230.786Z" fill="#F1A11E" transform="translate(3521.75 1892)"/><path d="M150.78-196.67C157.202-195.689 163.624-194.596 170.046-193.392 176.468-192.188 182.934-191.586 189.445-191.586 192.21-191.586 194.931-191.72 197.606-191.987 199.747-190.293 202.111-188.977 204.697-188.041 207.284-187.104 209.96-186.636 212.725-186.636L226.505-186.636C228.467-186.636 230.273-186.212 231.923-185.365 233.573-184.517 235-183.425 236.205-182.087 237.409-180.749 238.345-179.21 239.014-177.471 239.683-175.732 240.018-173.926 240.018-172.053 240.018-171.339 240.018-170.559 240.018-169.711 240.018-168.864 239.973-168.084 239.884-167.37 239.438-159.343 238.97-151.382 238.479-143.489 237.988-135.595 237.476-127.635 236.94-119.607 236.851-118.091 236.584-116.553 236.138-114.992 235.692-113.431 235.157-111.981 234.532-110.644 233.105-106.987 231.187-103.687 228.779-100.743 226.371-97.7998 223.628-95.2801 220.551-93.1841 217.474-91.088 214.107-89.4603 210.45-88.3008 206.793-87.1413 203.047-86.5615 199.212-86.5615L180.883-86.5615C176.423-86.5615 172.008-87.4088 167.638-89.1035 163.267-90.7982 159.32-93.1172 155.797-96.0605 152.274-99.0039 149.375-102.482 147.101-106.496 144.827-110.51 143.511-114.88 143.154-119.607 142.53-128.437 141.95-137.223 141.415-145.964 140.88-154.705 140.3-163.49 139.676-172.32 139.497-174.55 139.698-176.802 140.278-179.077 140.858-181.351 141.638-183.559 142.619-185.699 143.6-187.84 144.804-189.847 146.231-191.72 147.659-193.593 149.175-195.243 150.78-196.67Z" fill="#FFC83D" transform="translate(3521.75 1892)"/><path d="M148.506-148.238 142.218-132.184C139.988-132.184 137.892-132.607 135.93-133.455 133.967-134.302 132.25-135.439 130.779-136.866 129.307-138.293 128.148-139.988 127.3-141.95 126.453-143.912 126.029-146.008 126.029-148.238 126.029-150.201 126.386-152.096 127.1-153.924 127.813-155.753 128.817-157.381 130.11-158.808 131.403-160.235 132.897-161.416 134.592-162.353 136.286-163.29 138.159-163.892 140.211-164.159ZM223.963-148.238 239.75-163.892C243.496-163.178 246.551-161.327 248.915-158.339 251.278-155.351 252.46-151.984 252.46-148.238 252.46-146.187 252.081-144.225 251.323-142.352 250.565-140.478 249.517-138.806 248.179-137.334 246.841-135.863 245.28-134.681 243.496-133.789 241.712-132.897 239.795-132.362 237.743-132.184Z" fill="#FDBB11" transform="translate(3521.75 1892)"/><path d="M150.78-196.67C157.202-195.689 163.624-194.596 170.046-193.392 176.468-192.188 182.934-191.586 189.445-191.586 192.21-191.586 194.931-191.72 197.606-191.987 199.747-190.293 202.111-188.977 204.697-188.041 207.284-187.104 209.96-186.636 212.725-186.636L226.505-186.636C228.467-186.636 230.273-186.212 231.923-185.365 233.573-184.517 235-183.425 236.205-182.087 237.409-180.749 238.345-179.21 239.014-177.471 239.683-175.732 240.018-173.926 240.018-172.053 240.018-171.339 240.018-170.559 240.018-169.711 240.018-168.864 239.973-168.084 239.884-167.37 239.438-159.343 238.97-151.382 238.479-143.489 237.988-135.595 237.476-127.635 236.94-119.607 236.851-118.091 236.584-116.553 236.138-114.992 235.692-113.431 235.157-111.981 234.532-110.644 233.105-106.987 231.187-103.687 228.779-100.743 226.371-97.7998 223.628-95.2801 220.551-93.1841 217.474-91.088 214.107-89.4603 210.45-88.3008 206.793-87.1413 203.047-86.5615 199.212-86.5615L180.883-86.5615C176.423-86.5615 172.008-87.4088 167.638-89.1035 163.267-90.7982 159.32-93.1172 155.797-96.0605 152.274-99.0039 149.375-102.482 147.101-106.496 144.827-110.51 143.511-114.88 143.154-119.607 142.53-128.437 141.95-137.223 141.415-145.964 140.88-154.705 140.3-163.49 139.676-172.32 139.497-174.55 139.698-176.802 140.278-179.077 140.858-181.351 141.638-183.559 142.619-185.699 143.6-187.84 144.804-189.847 146.231-191.72 147.659-193.593 149.175-195.243 150.78-196.67Z" fill="#FFC83D" transform="translate(3521.75 1892)"/><path d="M189.312-118.403C190.917-118.403 192.299-118.492 193.459-118.671 194.618-118.849 195.711-119.095 196.737-119.407 197.763-119.719 198.811-120.076 199.881-120.477 200.951-120.878 202.2-121.347 203.627-121.882 203.716-121.882 203.828-121.904 203.961-121.949 204.095-121.993 204.207-122.016 204.296-122.016 204.742-122.016 205.121-121.86 205.433-121.547 205.745-121.235 205.901-120.856 205.901-120.41 205.901-120.232 205.812-119.964 205.634-119.607 203.939-116.842 201.576-114.68 198.543-113.119 195.51-111.558 192.433-110.777 189.312-110.777 186.19-110.777 183.113-111.58 180.08-113.186 177.048-114.791 174.728-116.932 173.123-119.607 172.945-119.964 172.855-120.276 172.855-120.544 172.855-120.99 172.989-121.369 173.257-121.681 173.524-121.993 173.881-122.149 174.327-122.149 174.506-122.149 174.773-122.06 175.13-121.882 177.449-120.722 179.746-119.853 182.02-119.273 184.294-118.693 186.725-118.403 189.312-118.403Z" fill="#990839" transform="translate(3521.75 1892)"/><path d="M181.017-132.853C181.017-133.655 181.24-134.882 181.686-136.532 182.131-138.182 182.644-139.921 183.224-141.749 183.804-143.578 184.406-145.317 185.03-146.967 185.655-148.617 186.101-149.933 186.368-150.914 186.992-152.698 188.197-153.59 189.98-153.59 191.853-153.59 193.102-152.698 193.727-150.914 193.994-149.933 194.44-148.617 195.064-146.967 195.689-145.317 196.291-143.578 196.871-141.749 197.45-139.921 197.963-138.182 198.409-136.532 198.855-134.882 199.078-133.655 199.078-132.853 199.078-131.425 198.543-130.199 197.473-129.173 196.402-128.148 195.154-127.635 193.727-127.635L186.234-127.635C184.807-127.635 183.581-128.148 182.555-129.173 181.529-130.199 181.017-131.425 181.017-132.853Z" fill="#ED9200" transform="translate(3521.75 1892)"/><path d="M165.898-161.617C167.415-161.617 168.976-161.305 170.581-160.681 172.187-160.056 173.636-159.209 174.929-158.139 176.222-157.068 177.293-155.797 178.14-154.326 178.987-152.854 179.411-151.315 179.411-149.71 179.411-149.175 179.144-148.729 178.608-148.372 178.073-148.015 177.583-147.837 177.137-147.837L155.195-147.837C154.482-147.837 153.835-148.104 153.255-148.64 152.676-149.175 152.386-149.799 152.386-150.513 152.386-152.029 152.832-153.456 153.724-154.794 154.616-156.132 155.73-157.314 157.068-158.339 158.406-159.365 159.878-160.168 161.483-160.748 163.089-161.327 164.561-161.617 165.898-161.617ZM212.858-161.617C211.253-161.617 209.67-161.305 208.109-160.681 206.548-160.056 205.121-159.209 203.828-158.139 202.534-157.068 201.486-155.797 200.684-154.326 199.881-152.854 199.479-151.315 199.479-149.71 199.479-149.175 199.747-148.729 200.282-148.372 200.817-148.015 201.308-147.837 201.754-147.837L223.695-147.837C224.409-147.837 225.033-148.104 225.568-148.64 226.103-149.175 226.371-149.799 226.371-150.513 226.371-152.118 225.925-153.59 225.033-154.928 224.141-156.266 223.026-157.425 221.688-158.406 220.351-159.387 218.901-160.168 217.34-160.748 215.779-161.327 214.285-161.617 212.858-161.617Z" fill="#FFFFFF" transform="translate(3521.75 1892)"/><path d="M159.209-150.111C159.209-152.52 160.056-154.593 161.751-156.333 163.446-158.072 165.497-158.941 167.905-158.941 170.403-158.941 172.476-158.049 174.126-156.266 175.777-154.482 176.602-152.386 176.602-149.978 176.602-149.621 176.602-149.264 176.602-148.907 176.602-148.55 176.512-148.194 176.334-147.837L159.477-147.837C159.298-148.283 159.209-148.662 159.209-148.974 159.209-149.286 159.209-149.665 159.209-150.111ZM219.682-150.111C219.682-152.52 218.812-154.593 217.073-156.333 215.333-158.072 213.26-158.941 210.852-158.941 208.354-158.941 206.28-158.072 204.63-156.333 202.98-154.593 202.155-152.52 202.155-150.111 202.155-149.665 202.178-149.286 202.222-148.974 202.267-148.662 202.334-148.283 202.423-147.837L219.414-147.837C219.503-148.283 219.57-148.662 219.615-148.974 219.659-149.286 219.682-149.665 219.682-150.111Z" fill="#7D4533" transform="translate(3521.75 1892)"/><path d="M167.905-155.195C169.332-155.195 170.514-154.705 171.451-153.724 172.387-152.742 172.855-151.538 172.855-150.111 172.855-149.219 172.677-148.461 172.32-147.837L163.49-147.837C163.133-148.461 162.955-149.219 162.955-150.111 162.955-151.538 163.423-152.742 164.36-153.724 165.296-154.705 166.478-155.195 167.905-155.195ZM210.852-155.195C209.424-155.195 208.243-154.705 207.306-153.724 206.37-152.742 205.901-151.538 205.901-150.111 205.901-149.219 206.08-148.461 206.436-147.837L215.267-147.837C215.713-148.55 215.936-149.309 215.936-150.111 215.936-151.538 215.445-152.742 214.464-153.724 213.483-154.705 212.279-155.195 210.852-155.195Z" transform="translate(3521.75 1892)"/><path d="M166.434-153.59C166.434-152.609 165.943-152.118 164.962-152.118 164.516-152.118 164.137-152.252 163.825-152.52 163.513-152.787 163.356-153.144 163.356-153.59 163.356-154.036 163.513-154.415 163.825-154.727 164.137-155.039 164.516-155.195 164.962-155.195 165.408-155.195 165.765-155.039 166.032-154.727 166.3-154.415 166.434-154.036 166.434-153.59ZM209.647-153.59C209.647-153.144 209.491-152.787 209.179-152.52 208.867-152.252 208.488-152.118 208.042-152.118 207.061-152.118 206.57-152.609 206.57-153.59 206.57-154.036 206.704-154.415 206.972-154.727 207.239-155.039 207.596-155.195 208.042-155.195 208.488-155.195 208.867-155.039 209.179-154.727 209.491-154.415 209.647-154.036 209.647-153.59Z" fill="#FFFFFF" transform="translate(3521.75 1892)"/><path d="M266.106-215.4 239.482-215.4 248.848-200.148 204.028-192.79C201.62-192.344 199.19-192.054 196.737-191.92 194.284-191.787 191.809-191.72 189.312-191.72 186.814-191.72 184.339-191.787 181.886-191.92 179.433-192.054 177.003-192.344 174.595-192.79L129.775-200.015 139.141-215.4 112.517-215.4C110.376-215.4 108.57-216.158 107.098-217.675 105.626-219.191 104.891-221.02 104.891-223.16 104.891-225.212 105.649-226.995 107.165-228.512 108.681-230.028 110.465-230.786 112.517-230.786L265.973-230.786C268.024-230.786 269.83-230.05 271.391-228.579 272.952-227.107 273.732-225.301 273.732-223.16L273.732-137.669C275.07-136.955 276.141-135.952 276.943-134.659 277.746-133.365 278.147-131.961 278.147-130.444 278.147-128.125 277.367-126.163 275.806-124.558 274.245-122.952 272.305-122.149 269.986-122.149 267.667-122.149 265.705-122.952 264.1-124.558 262.494-126.163 261.691-128.125 261.691-130.444 261.691-131.961 262.093-133.365 262.895-134.659 263.698-135.952 264.769-136.955 266.106-137.669Z" fill="#1C1C1C" transform="translate(3521.75 1892)"/><path d="M152.787-170.982C152.787-172.053 153.456-173.012 154.794-173.859 156.132-174.706 157.715-175.42 159.543-175.999 161.372-176.579 163.156-177.025 164.895-177.337 166.634-177.65 167.905-177.806 168.708-177.806 169.243-177.806 169.845-177.806 170.514-177.806 171.183-177.806 171.807-177.716 172.387-177.538 172.967-177.36 173.457-177.07 173.859-176.668 174.26-176.267 174.461-175.665 174.461-174.862 174.461-174.149 174.193-173.547 173.658-173.056 173.123-172.566 172.499-172.32 171.785-172.32 169.823-172.32 167.994-172.276 166.3-172.187 164.605-172.097 162.821-171.696 160.948-170.982 160.235-170.715 159.298-170.202 158.139-169.444 156.979-168.686 156.087-168.307 155.463-168.307 154.749-168.307 154.125-168.574 153.59-169.109 153.055-169.645 152.787-170.269 152.787-170.982ZM224.766-172.855C225.39-172.32 225.702-171.607 225.702-170.715 225.702-170.001 225.435-169.377 224.899-168.842 224.364-168.307 223.74-168.039 223.026-168.039 222.67-168.039 222.134-168.217 221.421-168.574 221.51-168.663 221.532-168.73 221.488-168.775 221.443-168.819 221.376-168.797 221.287-168.708 220.038-169.511 218.857-170.157 217.742-170.648 216.627-171.138 215.512-171.473 214.397-171.651 213.282-171.83 212.1-171.941 210.852-171.986 209.603-172.03 208.265-172.053 206.838-172.053 206.124-172.053 205.5-172.298 204.965-172.789 204.43-173.279 204.162-173.881 204.162-174.595 204.162-176.111 204.809-176.981 206.102-177.204 207.395-177.427 208.622-177.538 209.781-177.538 210.673-177.538 211.833-177.427 213.26-177.204 214.687-176.981 216.136-176.668 217.608-176.267 219.08-175.866 220.462-175.375 221.755-174.795 223.049-174.216 224.007-173.569 224.632-172.855Z" fill="#D37034" transform="translate(3521.75 1892)"/><path d="M63.1484-182.756C63.1484-182.756 62.9477-183.38 62.5464-184.629 62.145-185.878 61.6767-187.461 61.1416-189.378 60.6064-191.296 60.0044-193.37 59.3354-195.6 58.6665-197.829 58.0421-199.948 57.4624-201.955 56.8826-203.961 56.3921-205.678 55.9907-207.105 55.5893-208.533 55.3441-209.424 55.2549-209.781 56.4144-210.941 57.7969-211.52 59.4023-211.52L316.545-211.52C318.15-211.52 319.555-210.963 320.759-209.848 321.963-208.733 322.565-207.328 322.565-205.634L322.565-15.7871C322.565-14.0924 321.986-12.6654 320.826-11.5059 317.169-12.7546 313.512-14.0924 309.855-15.5195 306.199-16.9466 302.497-18.1953 298.751-19.2656L135.261-67.2959Z" fill="#FFCE7C" transform="translate(358.59 1893)"/><path d="M59.4023-9.7666C57.7969-9.7666 56.4144-10.3464 55.2549-11.5059 54.0954-12.6654 53.5156-14.0478 53.5156-15.6533L53.5156-205.634C53.5156-207.239 54.0954-208.622 55.2549-209.781 56.5036-208.533 57.7969-207.172 59.1348-205.701 60.4726-204.229 61.8105-203.003 63.1484-202.021L313.066-19.2656C314.404-18.2845 315.742-17.0358 317.08-15.5195 318.418-14.0033 319.667-12.6654 320.826-11.5059 319.667-10.3464 318.284-9.7666 316.679-9.7666L59.4023-9.7666Z" fill="#E19747" transform="translate(358.59 1893)"/><path d="M63.1484-19.3994 63.1484-202.021 313.066-202.021 313.066-19.3994 63.1484-19.3994Z" fill="#44911B" transform="translate(358.59 1893)"/><path d="M120.812-76.7949C130.355-84.6439 140.858-90.6421 152.319-94.7895 163.78-98.937 175.71-101.011 188.107-101.011 200.505-101.011 212.435-98.937 223.896-94.7895 235.357-90.6421 245.86-84.6439 255.403-76.7949L269.853-19.2656 255.403 38.3975 120.812 38.3975 106.362-19.2656Z" fill="#8C5543" transform="translate(358.59 1893)"/><path d="M155.864-96.1943 168.842-96.1943 168.842 38.3975 141.95-37.1934C141.593-37.9961 141.415-39.0218 141.415-40.2705 141.415-42.8571 142.307-45.0423 144.091-46.8262L157.202-59.6699C157.737-60.2051 158.005-60.7848 158.005-61.4092 158.005-62.4795 157.626-63.193 156.868-63.5498 156.11-63.9066 155.151-64.085 153.991-64.085 152.832-64.085 151.583-64.0181 150.245-63.8843 148.907-63.7505 147.659-63.7059 146.499-63.7505 145.339-63.7951 144.381-64.0181 143.623-64.4194 142.864-64.8208 142.485-65.6012 142.485-66.7607 142.485-67.0283 142.775-67.8756 143.355-69.3027 143.935-70.7298 144.693-72.4468 145.629-74.4536 146.566-76.4604 147.569-78.6234 148.64-80.9424 149.71-83.2614 150.736-85.4689 151.717-87.5649 152.698-89.661 153.568-91.4894 154.326-93.0503 155.084-94.6112 155.597-95.6592 155.864-96.1943ZM220.752-96.1943 207.373-96.1943 207.373 38.3975 234.8-37.1934C235.157-37.9961 235.335-39.0218 235.335-40.2705 235.335-42.5895 234.465-44.7524 232.726-46.7593 230.987-48.7661 229.091-50.6392 227.04-52.3784 224.989-54.1177 223.093-55.7231 221.354-57.1948 219.615-58.6665 218.745-60.0267 218.745-61.2754 218.745-62.8809 219.548-63.7505 221.153-63.8843 222.759-64.0181 224.52-64.0181 226.438-63.8843 228.356-63.7505 230.117-63.7728 231.723-63.9512 233.328-64.1295 234.131-65.0661 234.131-66.7607 234.131-67.0283 233.841-67.8756 233.261-69.3027 232.681-70.7298 231.923-72.4245 230.987-74.3867 230.05-76.349 229.047-78.5119 227.977-80.8755 226.906-83.2391 225.88-85.4466 224.899-87.498 223.918-89.5495 223.049-91.3779 222.29-92.9834 221.532-94.5889 221.02-95.6592 220.752-96.1943Z" fill="#6D4534" transform="translate(358.59 1893)"/><path d="M120.812 38.3975 82.2803 38.3975 82.2803 4.81641C82.2803-3.03255 83.1499-10.77 84.8892-18.396 86.6284-26.022 89.1481-33.3358 92.4482-40.3374 95.7484-47.339 99.7843-53.917 104.556-60.0713 109.328-66.2256 114.746-71.8447 120.812-76.9287ZM255.403-76.9287C261.468-71.9339 266.887-66.3371 271.659-60.1382 276.43-53.9393 280.444-47.3613 283.7-40.4043 286.955-33.4473 289.453-26.1558 291.192-18.5298 292.931-10.9038 293.801-3.16634 293.801 4.68262 293.801 8.69629 293.823 12.7323 293.868 16.7905 293.912 20.8488 293.935 24.8848 293.935 28.8984L293.935 38.3975 255.403 38.3975Z" fill="#6D4534" transform="translate(358.59 1893)"/><path d="M207.774-88.3008 207.774 38.3975 168.307 38.3975 168.307-88.3008 207.774-88.3008Z" fill="#E6E6E6" transform="translate(358.59 1893)"/><path d="M188.107-70.5068C185.432-70.5068 182.912-71.042 180.548-72.1123 178.185-73.1826 176.133-74.6097 174.394-76.3935 172.655-78.1774 171.295-80.2734 170.313-82.6816 169.332-85.0898 168.842-87.6318 168.842-90.3076L168.842-114.925C168.842-117.601 169.332-120.143 170.313-122.551 171.295-124.959 172.655-127.055 174.394-128.839 176.133-130.623 178.185-132.05 180.548-133.12 182.912-134.19 185.432-134.726 188.107-134.726 190.783-134.726 193.303-134.19 195.666-133.12 198.03-132.05 200.082-130.623 201.821-128.839 203.56-127.055 204.92-124.959 205.901-122.551 206.882-120.143 207.373-117.601 207.373-114.925L207.373-90.3076C207.373-87.6318 206.86-85.1121 205.834-82.7485 204.809-80.3849 203.426-78.2889 201.687-76.4604 199.948-74.632 197.919-73.1826 195.6-72.1123 193.281-71.042 190.783-70.5068 188.107-70.5068Z" fill="#FCB100" transform="translate(358.59 1893)"/><path d="M202.958-230.786C207.061-230.786 210.785-229.805 214.129-227.843 217.474-225.88 220.261-223.205 222.491-219.815 225.791-214.821 230.206-211.342 235.736-209.38 240.464-207.685 244.232-204.943 247.041-201.152 249.851-197.361 251.256-192.924 251.256-187.84 251.256-185.164 250.899-182.89 250.186-181.017 249.472-179.144 248.669-177.427 247.777-175.866 246.885-174.305 246.083-172.766 245.369-171.25 244.656-169.734 244.299-168.039 244.299-166.166L244.299-126.029C244.299-121.57 243.005-117.511 240.419-113.854 237.832-110.198 234.443-107.656 230.251-106.229L212.056-100.074 212.056-171.518C210.183-173.569 208.711-175.643 207.641-177.739 206.57-179.835 205.857-182.31 205.5-185.164 202.378-184.629 199.256-184.874 196.135-185.9 193.013-186.926 190.293-188.42 187.974-190.382 185.922-188.598 183.625-187.238 181.083-186.301 178.541-185.365 175.933-184.896 173.257-184.896 172.811-184.896 172.343-184.919 171.852-184.963 171.361-185.008 170.893-185.075 170.447-185.164 170.269-182.577 169.6-180.102 168.44-177.739 167.281-175.375 165.809-173.301 164.025-171.518L164.025-100.074 145.83-106.362C141.549-107.879 138.115-110.421 135.528-113.988 132.942-117.556 131.648-121.614 131.648-126.163L131.648-166.3C131.648-168.262 131.292-170.001 130.578-171.518 129.865-173.034 129.084-174.572 128.237-176.133 127.389-177.694 126.609-179.411 125.895-181.284 125.182-183.157 124.825-185.387 124.825-187.974 124.825-192.968 126.252-197.361 129.106-201.152 131.961-204.943 135.707-207.685 140.345-209.38 145.964-211.431 150.468-214.999 153.857-220.083 156.087-223.472 158.83-226.103 162.085-227.977 165.341-229.85 169.065-230.786 173.257-230.786 174.595-230.786 175.888-230.63 177.137-230.318 178.385-230.006 179.612-229.649 180.816-229.248 182.02-228.846 183.224-228.489 184.428-228.177 185.632-227.865 186.859-227.709 188.107-227.709 189.356-227.709 190.56-227.865 191.72-228.177 192.879-228.489 194.061-228.846 195.265-229.248 196.469-229.649 197.696-230.006 198.944-230.318 200.193-230.63 201.531-230.786 202.958-230.786Z" fill="#F1A11E" transform="translate(358.59 1893)"/><path d="M157.068-148.238C157.068-146.008 156.645-143.935 155.797-142.017 154.95-140.099 153.791-138.405 152.319-136.933 150.847-135.461 149.152-134.302 147.235-133.455 145.317-132.607 143.243-132.184 141.014-132.184 138.784-132.184 136.71-132.607 134.792-133.455 132.875-134.302 131.18-135.461 129.708-136.933 128.237-138.405 127.077-140.099 126.23-142.017 125.383-143.935 124.959-146.008 124.959-148.238 124.959-150.468 125.383-152.542 126.23-154.459 127.077-156.377 128.237-158.072 129.708-159.543 131.18-161.015 132.875-162.175 134.792-163.022 136.71-163.869 138.784-164.293 141.014-164.293 143.243-164.293 145.317-163.869 147.235-163.022 149.152-162.175 150.847-161.015 152.319-159.543 153.791-158.072 154.95-156.377 155.797-154.459 156.645-152.542 157.068-150.468 157.068-148.238ZM251.122-148.238C251.122-146.008 250.698-143.935 249.851-142.017 249.004-140.099 247.844-138.405 246.373-136.933 244.901-135.461 243.206-134.302 241.289-133.455 239.371-132.607 237.297-132.184 235.067-132.184 232.838-132.184 230.764-132.607 228.846-133.455 226.929-134.302 225.234-135.461 223.762-136.933 222.29-138.405 221.131-140.099 220.284-142.017 219.436-143.935 219.013-146.008 219.013-148.238 219.013-150.468 219.436-152.542 220.284-154.459 221.131-156.377 222.29-158.072 223.762-159.543 225.234-161.015 226.929-162.175 228.846-163.022 230.764-163.869 232.838-164.293 235.067-164.293 237.297-164.293 239.371-163.869 241.289-163.022 243.206-162.175 244.901-161.015 246.373-159.543 247.844-158.072 249.004-156.377 249.851-154.459 250.698-152.542 251.122-150.468 251.122-148.238Z" fill="#FDBB11" transform="translate(358.59 1893)"/><path d="M138.338-172.32C138.338-176.78 139.207-180.972 140.947-184.896 142.686-188.821 145.072-192.255 148.104-195.198 151.137-198.142 154.616-200.483 158.54-202.222 162.464-203.961 166.657-204.831 171.116-204.831L183.692-204.831C185.209-204.831 186.413-204.474 187.305-203.761 188.197-203.047 188.999-202.066 189.713-200.817 192.121-196.715 194.529-193.704 196.937-191.787 199.346-189.869 201.932-188.576 204.697-187.907 207.462-187.238 210.495-186.926 213.795-186.97 217.095-187.015 220.886-186.992 225.167-186.903 227.129-186.903 228.958-186.48 230.652-185.632 232.347-184.785 233.796-183.692 235-182.354 236.205-181.017 237.141-179.456 237.81-177.672 238.479-175.888 238.813-174.06 238.813-172.187 238.813-171.384 238.813-170.559 238.813-169.711 238.813-168.864 238.769-168.039 238.68-167.236 238.234-159.209 237.765-151.271 237.275-143.422 236.784-135.573 236.271-127.635 235.736-119.607 235.647-118.091 235.357-116.553 234.867-114.992 234.376-113.431 233.863-111.981 233.328-110.644 231.901-106.987 229.983-103.687 227.575-100.743 225.167-97.7998 222.424-95.2801 219.347-93.1841 216.27-91.088 212.903-89.4603 209.246-88.3008 205.589-87.1413 201.798-86.5615 197.874-86.5615L179.679-86.5615C175.754-86.5615 171.964-87.1413 168.307-88.3008 164.65-89.4603 161.283-91.088 158.206-93.1841 155.128-95.2801 152.386-97.7998 149.978-100.743 147.569-103.687 145.652-106.987 144.225-110.644 143.689-111.981 143.199-113.431 142.753-114.992 142.307-116.553 141.995-118.091 141.816-119.607L139.542-154.794C139.274-158.183 139.007-161.104 138.739-163.557 138.472-166.01 138.338-168.931 138.338-172.32Z" fill="#FFC83D" transform="translate(358.59 1893)"/><path d="M152.921-172.855C153.545-173.569 154.504-174.216 155.797-174.795 157.091-175.375 158.473-175.866 159.945-176.267 161.416-176.668 162.866-176.981 164.293-177.204 165.72-177.427 166.88-177.538 167.771-177.538 168.931-177.538 170.157-177.427 171.451-177.204 172.744-176.981 173.391-176.111 173.391-174.595 173.391-173.881 173.123-173.279 172.588-172.789 172.053-172.298 171.428-172.053 170.715-172.053 168.753-172.053 166.924-172.008 165.229-171.919 163.535-171.83 161.751-171.428 159.878-170.715 159.521-170.536 159.097-170.313 158.607-170.046 158.116-169.778 157.604-169.488 157.068-169.176 156.533-168.864 156.043-168.596 155.597-168.374 155.151-168.151 154.794-168.039 154.526-168.039 153.813-168.039 153.188-168.307 152.653-168.842 152.118-169.377 151.851-170.001 151.851-170.715 151.851-171.607 152.163-172.32 152.787-172.855ZM224.498-170.715C224.498-170.001 224.23-169.377 223.695-168.842 223.16-168.307 222.536-168.039 221.822-168.039 221.465-168.039 220.93-168.217 220.217-168.574 220.306-168.663 220.328-168.73 220.284-168.775 220.239-168.819 220.172-168.797 220.083-168.708 216.515-171.027 212.591-172.187 208.31-172.187 207.864-172.187 207.328-172.164 206.704-172.12 206.08-172.075 205.478-172.097 204.898-172.187 204.318-172.276 203.828-172.499 203.426-172.855 203.025-173.212 202.824-173.792 202.824-174.595 202.824-176.111 203.493-176.981 204.831-177.204 206.169-177.427 207.418-177.538 208.577-177.538 209.469-177.538 210.629-177.427 212.056-177.204 213.483-176.981 214.91-176.668 216.337-176.267 217.764-175.866 219.102-175.375 220.351-174.795 221.599-174.216 222.58-173.569 223.294-172.855L223.428-172.855C224.141-172.32 224.498-171.607 224.498-170.715Z" fill="#D37034" transform="translate(358.59 1893)"/><path d="M164.694-161.617C166.211-161.617 167.771-161.305 169.377-160.681 170.982-160.056 172.432-159.209 173.725-158.139 175.018-157.068 176.066-155.797 176.869-154.326 177.672-152.854 178.073-151.315 178.073-149.71 178.073-149.175 177.828-148.729 177.337-148.372 176.847-148.015 176.379-147.837 175.933-147.837L153.991-147.837C153.278-147.837 152.653-148.082 152.118-148.573 151.583-149.063 151.315-149.665 151.315-150.379 151.315-151.984 151.739-153.478 152.586-154.861 153.434-156.243 154.504-157.425 155.797-158.406 157.091-159.387 158.518-160.168 160.079-160.748 161.639-161.327 163.178-161.617 164.694-161.617ZM211.654-161.617C210.138-161.617 208.577-161.305 206.972-160.681 205.366-160.056 203.917-159.209 202.624-158.139 201.33-157.068 200.26-155.797 199.413-154.326 198.565-152.854 198.142-151.315 198.142-149.71 198.142-149.175 198.409-148.729 198.944-148.372 199.479-148.015 199.97-147.837 200.416-147.837L222.357-147.837C223.071-147.837 223.695-148.104 224.23-148.64 224.766-149.175 225.033-149.799 225.033-150.513 225.033-152.029 224.587-153.456 223.695-154.794 222.803-156.132 221.688-157.314 220.351-158.339 219.013-159.365 217.563-160.168 216.002-160.748 214.442-161.327 212.992-161.617 211.654-161.617Z" fill="#FFFFFF" transform="translate(358.59 1893)"/><path d="M157.871-150.111C157.871-152.52 158.741-154.593 160.48-156.333 162.219-158.072 164.293-158.941 166.701-158.941 169.109-158.941 171.161-158.072 172.855-156.333 174.55-154.593 175.397-152.52 175.397-150.111 175.397-149.665 175.375-149.286 175.331-148.974 175.286-148.662 175.219-148.283 175.13-147.837L158.139-147.837C158.049-148.283 157.983-148.662 157.938-148.974 157.893-149.286 157.871-149.665 157.871-150.111ZM218.344-150.111C218.344-152.52 217.496-154.593 215.802-156.333 214.107-158.072 212.056-158.941 209.647-158.941 207.15-158.941 205.076-158.094 203.426-156.399 201.776-154.705 200.951-152.609 200.951-150.111 200.951-149.665 200.951-149.286 200.951-148.974 200.951-148.662 201.04-148.283 201.219-147.837L218.076-147.837C218.255-148.283 218.344-148.662 218.344-148.974 218.344-149.286 218.344-149.665 218.344-150.111Z" fill="#7D4533" transform="translate(358.59 1893)"/><path d="M166.701-155.195C168.128-155.195 169.31-154.705 170.247-153.724 171.183-152.742 171.651-151.538 171.651-150.111 171.651-149.219 171.473-148.461 171.116-147.837L162.286-147.837C161.84-148.55 161.617-149.309 161.617-150.111 161.617-151.538 162.108-152.742 163.089-153.724 164.07-154.705 165.274-155.195 166.701-155.195ZM209.647-155.195C208.22-155.195 207.039-154.705 206.102-153.724 205.165-152.742 204.697-151.538 204.697-150.111 204.697-149.219 204.876-148.461 205.232-147.837L214.062-147.837C214.419-148.461 214.598-149.219 214.598-150.111 214.598-151.538 214.129-152.742 213.193-153.724 212.256-154.705 211.075-155.195 209.647-155.195Z" transform="translate(358.59 1893)"/><path d="M165.229-153.724C165.229-152.653 164.694-152.118 163.624-152.118 163.178-152.118 162.821-152.274 162.554-152.586 162.286-152.899 162.152-153.278 162.152-153.724 162.152-154.705 162.643-155.195 163.624-155.195 164.07-155.195 164.449-155.061 164.761-154.794 165.073-154.526 165.229-154.17 165.229-153.724ZM208.443-153.724C208.443-153.278 208.287-152.899 207.975-152.586 207.663-152.274 207.284-152.118 206.838-152.118 206.392-152.118 206.035-152.274 205.768-152.586 205.5-152.899 205.366-153.278 205.366-153.724 205.366-154.705 205.857-155.195 206.838-155.195 207.284-155.195 207.663-155.061 207.975-154.794 208.287-154.526 208.443-154.17 208.443-153.724Z" fill="#FFFFFF" transform="translate(358.59 1893)"/><path d="M179.812-132.853C179.812-133.655 180.035-134.859 180.481-136.465 180.927-138.07 181.463-139.81 182.087-141.683 182.711-143.556 183.313-145.34 183.893-147.034 184.473-148.729 184.896-150.022 185.164-150.914 185.788-152.698 186.992-153.59 188.776-153.59 190.56-153.59 191.764-152.698 192.389-150.914 192.656-150.022 193.08-148.729 193.66-147.034 194.239-145.34 194.841-143.556 195.466-141.683 196.09-139.81 196.625-138.07 197.071-136.465 197.517-134.859 197.74-133.655 197.74-132.853 197.74-131.336 197.227-130.088 196.202-129.106 195.176-128.125 193.95-127.635 192.522-127.635L185.03-127.635C183.603-127.635 182.377-128.125 181.351-129.106 180.325-130.088 179.812-131.336 179.812-132.853Z" fill="#ED9200" transform="translate(358.59 1893)"/><path d="M188.107-118.537C189.624-118.537 190.962-118.626 192.121-118.805 193.281-118.983 194.395-119.228 195.466-119.541 196.536-119.853 197.606-120.209 198.677-120.611 199.747-121.012 200.951-121.48 202.289-122.016 202.378-122.016 202.49-122.038 202.624-122.083 202.757-122.127 202.869-122.149 202.958-122.149 203.404-122.149 203.783-121.993 204.095-121.681 204.407-121.369 204.563-120.99 204.563-120.544 204.563-120.366 204.474-120.098 204.296-119.741 202.512-116.976 200.171-114.813 197.272-113.252 194.373-111.692 191.318-110.911 188.107-110.911 186.77-110.911 185.276-111.134 183.625-111.58 181.975-112.026 180.37-112.628 178.809-113.386 177.248-114.144 175.821-115.059 174.528-116.129 173.235-117.199 172.32-118.403 171.785-119.741 171.785-119.83 171.741-119.964 171.651-120.143 171.562-120.321 171.518-120.455 171.518-120.544 171.518-121.614 172.097-122.149 173.257-122.149 173.524-122.149 173.747-122.105 173.926-122.016 176.245-120.856 178.541-119.986 180.816-119.407 183.09-118.827 185.521-118.537 188.107-118.537Z" fill="#990839" transform="translate(358.59 1893)"/><path d="M123.889-18.3291C123.889-20.9157 124.847-23.1678 126.765-25.0854 128.683-27.0031 130.935-27.9619 133.521-27.9619 136.108-27.9619 138.36-27.0031 140.278-25.0854 142.195-23.1678 143.154-20.9157 143.154-18.3291L143.154 3.74609 123.889 3.74609ZM252.192-18.3291C252.192-20.9157 251.234-23.1678 249.316-25.0854 247.398-27.0031 245.146-27.9619 242.56-27.9619 239.973-27.9619 237.743-27.0031 235.87-25.0854 233.997-23.1678 233.061-20.9157 233.061-18.3291L233.061 3.74609 252.192 3.74609Z" fill="#FDBB11" transform="translate(358.59 1893)"/><path d="M234.532-168.44C235.513-168.44 236.316-168.128 236.94-167.504 237.565-166.88 237.877-166.077 237.877-165.096 237.877-164.025 237.788-163.2 237.609-162.621 237.431-162.041 237.208-161.573 236.94-161.216 236.673-160.859 236.45-160.547 236.271-160.279 236.093-160.012 236.004-159.7 236.004-159.343L236.004-148.64C236.004-146.142 235.513-143.779 234.532-141.549 233.551-139.319 232.235-137.379 230.585-135.729 228.935-134.079 226.995-132.763 224.766-131.782 222.536-130.801 220.172-130.311 217.675-130.311L210.852-130.311C208.265-130.311 205.857-130.779 203.627-131.715 201.397-132.652 199.457-133.967 197.807-135.662 196.157-137.357 194.841-139.297 193.86-141.482 192.879-143.667 192.389-146.053 192.389-148.64 192.389-149.353 192.433-150.223 192.522-151.249 192.612-152.274 192.589-153.278 192.456-154.259 192.322-155.24 191.987-156.087 191.452-156.801 190.917-157.514 190.07-157.871 188.91-157.871 187.929-157.871 187.082-157.559 186.368-156.935 185.655-156.31 185.298-155.507 185.298-154.526L185.298-148.64C185.298-146.142 184.807-143.779 183.826-141.549 182.845-139.319 181.529-137.379 179.879-135.729 178.229-134.079 176.289-132.763 174.06-131.782 171.83-130.801 169.466-130.311 166.969-130.311L160.145-130.311C157.648-130.311 155.284-130.801 153.055-131.782 150.825-132.763 148.885-134.079 147.235-135.729 145.585-137.379 144.269-139.319 143.288-141.549 142.307-143.779 141.816-146.142 141.816-148.64L141.816-159.209C141.816-159.833 141.482-160.346 140.813-160.748 140.144-161.149 139.81-161.885 139.81-162.955 139.81-164.204 139.943-165.43 140.211-166.634 140.479-167.838 141.46-168.44 143.154-168.44L176.602-168.44C178.296-168.44 179.634-168.128 180.615-167.504 181.596-166.88 182.466-166.211 183.224-165.497 183.982-164.784 184.785-164.115 185.632-163.49 186.48-162.866 187.572-162.554 188.91-162.554 190.248-162.554 191.318-162.866 192.121-163.49 192.924-164.115 193.704-164.784 194.462-165.497 195.221-166.211 196.09-166.88 197.071-167.504 198.052-168.128 199.435-168.44 201.219-168.44ZM181.953-149.71C181.953-151.315 181.953-153.01 181.953-154.794 181.953-156.578 181.708-158.25 181.217-159.811 180.727-161.372 179.902-162.643 178.742-163.624 177.583-164.605 175.843-165.096 173.524-165.096L153.456-165.096C151.137-165.096 149.152-164.248 147.502-162.554 145.852-160.859 145.027-158.852 145.027-156.533L145.027-149.71C145.027-147.48 145.451-145.406 146.298-143.489 147.146-141.571 148.283-139.899 149.71-138.472 151.137-137.045 152.809-135.907 154.727-135.06 156.645-134.213 158.718-133.789 160.948-133.789L166.166-133.789C168.307-133.789 170.358-134.213 172.32-135.06 174.283-135.907 175.977-137.045 177.404-138.472 178.831-139.899 179.969-141.593 180.816-143.556 181.663-145.518 182.087-147.569 182.087-149.71ZM232.793-156.533C232.793-158.852 231.968-160.859 230.318-162.554 228.668-164.248 226.683-165.096 224.364-165.096L204.296-165.096C201.888-165.096 199.859-164.271 198.208-162.621 196.558-160.971 195.733-158.941 195.733-156.533L195.733-149.71C195.733-147.569 196.157-145.518 197.004-143.556 197.852-141.593 198.989-139.899 200.416-138.472 201.843-137.045 203.538-135.907 205.5-135.06 207.462-134.213 209.514-133.789 211.654-133.789L217.006-133.789C219.236-133.789 221.309-134.213 223.227-135.06 225.145-135.907 226.817-137.045 228.244-138.472 229.671-139.899 230.786-141.593 231.589-143.556 232.392-145.518 232.793-147.569 232.793-149.71Z" fill="#433B6B" transform="translate(358.59 1893)"/><path d="M143.02-29.9687C143.02-32.4661 143.489-34.8298 144.425-37.0596 145.362-39.2894 146.655-41.2293 148.305-42.8794 149.955-44.5295 151.895-45.8228 154.125-46.7593 156.355-47.6958 158.718-48.1641 161.216-48.1641L234.666-48.1641C236.807-48.1641 238.635-47.3836 240.151-45.8228 241.668-44.2619 242.426-42.4111 242.426-40.2705L242.426 38.3975 143.02 38.3975 143.02-29.9687Z" fill="#F92F60" transform="translate(358.59 1893)"/><path d="M133.388 38.3975 133.388-39.6016C133.388-42.099 133.856-44.4626 134.792-46.6924 135.729-48.9222 137.022-50.8398 138.672-52.4453 140.322-54.0508 142.24-55.3218 144.425-56.2583 146.611-57.1948 148.996-57.6631 151.583-57.6631L234.666-57.6631C236.807-57.6631 238.412-57.2171 239.482-56.3252 240.553-55.4333 241.311-54.3184 241.757-52.9805 242.203-51.6426 242.426-50.1486 242.426-48.4985 242.426-46.8485 242.426-45.3099 242.426-43.8828L149.576-43.8828 149.576 38.3975Z" fill="#433B6B" transform="translate(358.59 1893)"/><path d="M242.292-32.7783 150.646-32.7783C148.327-32.7783 146.343-33.581 144.693-35.1865 143.043-36.792 142.218-38.7542 142.218-41.0732 142.218-43.3923 143.043-45.3768 144.693-47.0269 146.343-48.6769 148.327-49.5019 150.646-49.5019L242.292-49.5019Z" fill="#E6E6E6" transform="translate(358.59 1893)"/><path d="M164.025-11.9072C166.166-11.9072 167.928-11.1714 169.31-9.69971 170.693-8.22803 171.384-6.42187 171.384-4.28125 171.384-3.12174 171.072-2.05143 170.447-1.07031 169.823-0.0891927 169.02 0.713542 168.039 1.33789 169.02 1.96224 169.823 2.78727 170.447 3.81299 171.072 4.8387 171.384 5.97591 171.384 7.22461 171.384 8.47331 171.094 9.63281 170.514 10.7031 169.934 11.7734 169.109 12.6208 168.039 13.2451 169.109 13.8695 169.934 14.7168 170.514 15.7871 171.094 16.8574 171.384 18.0169 171.384 19.2656 171.384 20.5143 171.094 21.6515 170.514 22.6772 169.934 23.703 169.109 24.528 168.039 25.1523 170.269 26.5794 171.384 28.6755 171.384 31.4404 171.384 33.4027 170.626 35.0527 169.109 36.3906 167.593 37.7285 165.898 38.3975 164.025 38.3975L132.184 38.3975C129.865 38.3975 127.902 37.5947 126.297 35.9893 124.691 34.3838 123.889 32.4215 123.889 30.1025L123.889-3.74609C123.889-6.0651 124.691-8.02734 126.297-9.63281 127.902-11.2383 129.865-12.041 132.184-12.041L164.025-12.041ZM204.697-4.95019C204.697-7.00163 205.478-8.67399 207.039-9.96728 208.599-11.2606 210.316-11.9072 212.189-11.9072L212.189-12.041 243.897-12.041C246.216-12.041 248.179-11.2383 249.784-9.63281 251.39-8.02734 252.192-6.0651 252.192-3.74609L252.192 30.1025C252.192 32.4215 251.39 34.3838 249.784 35.9893 248.179 37.5947 246.216 38.3975 243.897 38.3975L212.189 38.3975C210.316 38.3975 208.599 37.7508 207.039 36.4575 205.478 35.1642 204.697 33.4919 204.697 31.4404 204.697 28.6755 205.812 26.5794 208.042 25.1523 207.061 24.528 206.258 23.703 205.634 22.6772 205.009 21.6515 204.697 20.5143 204.697 19.2656 204.697 18.0169 204.987 16.8574 205.567 15.7871 206.147 14.7168 206.972 13.8695 208.042 13.2451 206.972 12.6208 206.147 11.7734 205.567 10.7031 204.987 9.63281 204.697 8.47331 204.697 7.22461 204.697 5.97591 205.009 4.8387 205.634 3.81299 206.258 2.78727 207.061 1.96224 208.042 1.33789 205.812-0.0891926 204.697-2.18522 204.697-4.95019Z" fill="#FFC83D" transform="translate(358.59 1893)"/><path d="M1588 1444C1645.02 1446.71 1755.44 1444 1808.97 1444 1862.5 1444 1956.5 1441.19 2006.68 1444 2056.86 1446.81 2161.58 1432.6 2262.54 1444 2363.51 1455.4 2397.94 1446.18 2483.51 1444 2569.08 1441.82 2670.62 1440.42 2751 1444 2749.45 1555.6 2758.66 1609.66 2751 1692.75 2743.34 1775.83 2750.76 1865.34 2751 1927.41 2751.24 1989.49 2748.58 2047.84 2751 2148 2667.28 2149.94 2637.03 2154.13 2541.66 2148 2446.29 2141.87 2379.39 2155.7 2309.06 2148 2238.73 2140.3 2162.21 2137.72 2076.46 2148 1990.71 2158.28 1947.83 2152.49 1855.49 2148 1763.15 2143.51 1705.96 2160.02 1588 2148 1592.09 2071.75 1576.36 1958.61 1588 1899.25 1599.64 1839.89 1591.92 1761.65 1588 1650.51 1584.08 1539.37 1592.31 1501.37 1588 1444Z" stroke="#000000" stroke-width="10.3125" stroke-miterlimit="8" fill="none" fill-rule="evenodd"/><text font-family="Arial,Arial_MSFontService,sans-serif" font-weight="700" font-size="112" transform="matrix(1 0 0 1 1665.7 1770)">Intelligent Tutoring <tspan font-size="112" x="304.058" y="135">System</tspan><tspan font-size="100" x="-1320.03" y="273">Teacher/</tspan><tspan font-size="100" x="-1242.11" y="393">Tutor</tspan><tspan font-size="100" x="1859.19" y="250">Student</tspan><tspan font-size="100" x="1850.6" y="370">(Novice </tspan><tspan font-size="100" x="1731.15" y="490">Programmer)</tspan><tspan font-size="75" x="-885.7" y="-174">Reference Program,</tspan><tspan font-size="75" x="-724.802" y="-84">Test Cases</tspan><tspan font-size="75" x="-819.795" y="183">Grading Reports</tspan></text><path d="M821 1722.13 1429.06 1722.13 1429.06 1735.88 821 1735.88ZM1422.18 1708.38 1463.43 1729 1422.18 1749.63Z"/><path d="M1454.43 1831.88 846.374 1831.87 846.374 1818.12 1454.43 1818.12ZM853.25 1845.62 812 1825 853.25 1804.37Z"/><path d="M3499.43 1713.88 2891.37 1713.87 2891.37 1700.12 3499.43 1700.13ZM2898.25 1727.62 2857 1707 2898.25 1686.37Z"/><path d="M2857 1802.13 3465.06 1802.13 3465.06 1815.88 2857 1815.88ZM3458.18 1788.38 3499.43 1809 3458.18 1829.63Z"/><text font-family="Arial,Arial_MSFontService,sans-serif" font-weight="700" font-size="75" transform="matrix(1 0 0 1 2999.48 1939)">Feedback<tspan font-size="75" x="-33.4373" y="-315">Submission</tspan></text></g></svg>